<?xml version="1.0" encoding="UTF-8"?>
<svg xmlns="http://www.w3.org/2000/svg" xmlns:xlink="http://www.w3.org/1999/xlink" width="24px" height="24px" viewBox="0 0 24 24" version="1.1">
<g id="surface1">
<path style=" stroke:none;fill-rule:nonzero;fill:rgb(92.156863%,34.117648%,34.117648%);fill-opacity:1;" d="M 17.800781 15.65625 C 17.507812 15.742188 17.078125 15.753906 16.621094 15.6875 C 16.101562 15.609375 15.601562 15.457031 15.125 15.242188 C 16.007812 15.113281 16.695312 15.152344 17.28125 15.359375 C 17.417969 15.410156 17.648438 15.542969 17.800781 15.65625 Z M 12.871094 14.847656 L 12.765625 14.875 C 12.527344 14.941406 12.296875 15.003906 12.074219 15.058594 L 11.773438 15.136719 C 11.167969 15.289062 10.550781 15.445312 9.941406 15.632812 C 10.171875 15.074219 10.390625 14.507812 10.601562 13.953125 C 10.757812 13.542969 10.914062 13.125 11.082031 12.714844 C 11.164062 12.851562 11.25 12.988281 11.34375 13.128906 C 11.769531 13.773438 12.285156 14.351562 12.871094 14.847656 Z M 11.335938 8.539062 C 11.375 9.230469 11.226562 9.894531 11.007812 10.53125 C 10.738281 9.742188 10.613281 8.875 10.949219 8.171875 C 11.035156 7.992188 11.105469 7.894531 11.152344 7.84375 C 11.222656 7.953125 11.316406 8.199219 11.335938 8.539062 Z M 8.179688 17.28125 C 8.027344 17.554688 7.875 17.808594 7.714844 18.046875 C 7.335938 18.621094 6.710938 19.238281 6.390625 19.238281 C 6.359375 19.238281 6.320312 19.230469 6.265625 19.171875 C 6.226562 19.136719 6.222656 19.109375 6.222656 19.070312 C 6.234375 18.859375 6.515625 18.484375 6.921875 18.132812 C 7.308594 17.804688 7.730469 17.519531 8.179688 17.28125 Z M 18.824219 15.6875 C 18.773438 14.984375 17.585938 14.53125 17.574219 14.527344 C 17.117188 14.363281 16.621094 14.285156 16.054688 14.285156 C 15.445312 14.285156 14.792969 14.371094 13.953125 14.570312 C 13.214844 14.046875 12.582031 13.394531 12.082031 12.644531 C 11.871094 12.320312 11.679688 11.996094 11.511719 11.679688 C 11.917969 10.707031 12.285156 9.660156 12.21875 8.488281 C 12.164062 7.550781 11.738281 6.917969 11.164062 6.917969 C 10.769531 6.917969 10.429688 7.210938 10.152344 7.789062 C 9.65625 8.820312 9.789062 10.136719 10.539062 11.710938 C 10.269531 12.347656 10.015625 12.992188 9.773438 13.636719 C 9.472656 14.429688 9.160156 15.246094 8.808594 16.023438 C 7.824219 16.414062 7.019531 16.882812 6.34375 17.464844 C 5.902344 17.84375 5.371094 18.421875 5.339844 19.027344 C 5.328125 19.3125 5.425781 19.574219 5.621094 19.78125 C 5.832031 20.003906 6.097656 20.121094 6.390625 20.121094 C 7.351562 20.121094 8.277344 18.800781 8.453125 18.535156 C 8.804688 18 9.136719 17.40625 9.460938 16.722656 C 10.277344 16.425781 11.148438 16.207031 11.992188 15.992188 L 12.292969 15.917969 C 12.527344 15.855469 12.761719 15.792969 12.996094 15.730469 C 13.253906 15.660156 13.519531 15.589844 13.785156 15.519531 C 14.652344 16.070312 15.582031 16.429688 16.492188 16.5625 C 17.257812 16.671875 17.933594 16.609375 18.394531 16.367188 C 18.808594 16.152344 18.832031 15.820312 18.824219 15.6875 Z M 20.6875 21.746094 C 20.6875 23.035156 19.546875 23.117188 19.320312 23.117188 L 4.648438 23.117188 C 3.359375 23.117188 3.285156 21.972656 3.28125 21.746094 L 3.28125 2.253906 C 3.28125 0.960938 4.421875 0.882812 4.648438 0.882812 L 14.558594 0.882812 L 14.5625 0.886719 L 14.5625 4.753906 C 14.5625 5.53125 15.03125 7 16.808594 7 L 20.652344 7 L 20.683594 7.03125 L 20.683594 21.746094 Z M 19.773438 6.117188 L 16.808594 6.117188 C 15.523438 6.117188 15.445312 4.980469 15.445312 4.753906 L 15.445312 1.773438 Z M 21.566406 21.746094 L 21.566406 6.667969 L 15.445312 0.523438 L 15.445312 0.492188 L 15.417969 0.492188 L 14.925781 0 L 4.644531 0 C 3.871094 0 2.398438 0.472656 2.398438 2.253906 L 2.398438 21.746094 C 2.398438 22.527344 2.871094 24 4.648438 24 L 19.320312 24 C 20.097656 24 21.566406 23.527344 21.566406 21.746094 Z M 21.566406 21.746094 "/>
</g>
</svg>
